<svg id="Icon_awesome-facebook-square" data-name="Icon awesome-facebook-square" xmlns="http://www.w3.org/2000/svg" width="73" height="73" viewBox="0 0 73 73">
  <path id="Icon_awesome-facebook-square-2" data-name="Icon awesome-facebook-square" d="M65.179,2.25H7.821A7.821,7.821,0,0,0,0,10.071V67.429A7.821,7.821,0,0,0,7.821,75.25H30.186V50.432H19.92V38.75H30.186v-8.9c0-10.127,6.029-15.721,15.263-15.721a62.191,62.191,0,0,1,9.047.789v9.94H49.4c-5.02,0-6.586,3.116-6.586,6.311V38.75H54.022L52.229,50.432H42.814V75.25H65.179A7.821,7.821,0,0,0,73,67.429V10.071A7.821,7.821,0,0,0,65.179,2.25Z" transform="translate(0 -2.25)" fill="#676767"/>
</svg>
