<svg id="Icon_awesome-instagram" data-name="Icon awesome-instagram" xmlns="http://www.w3.org/2000/svg" width="73.016" height="73" viewBox="0 0 73.016 73">
  <path id="Icon_awesome-instagram-2" data-name="Icon awesome-instagram" d="M36.511,20.021A18.716,18.716,0,1,0,55.227,38.738,18.687,18.687,0,0,0,36.511,20.021Zm0,30.884A12.168,12.168,0,1,1,48.679,38.738,12.19,12.19,0,0,1,36.511,50.906Zm23.847-31.65a4.366,4.366,0,1,1-4.366-4.366A4.355,4.355,0,0,1,60.358,19.256Zm12.4,4.431c-.277-5.848-1.613-11.028-5.9-15.3-4.268-4.268-9.448-5.6-15.3-5.9-6.027-.342-24.092-.342-30.119,0-5.832.277-11.011,1.613-15.3,5.88s-5.6,9.448-5.9,15.3c-.342,6.027-.342,24.092,0,30.119.277,5.848,1.613,11.028,5.9,15.3s9.448,5.6,15.3,5.9c6.027.342,24.092.342,30.119,0,5.848-.277,11.028-1.613,15.3-5.9,4.268-4.268,5.6-9.448,5.9-15.3.342-6.027.342-24.075,0-30.1ZM64.968,60.256a12.319,12.319,0,0,1-6.939,6.939c-4.805,1.906-16.208,1.466-21.518,1.466s-16.729.424-21.518-1.466a12.319,12.319,0,0,1-6.939-6.939C6.148,55.45,6.588,44.048,6.588,38.738S6.164,22.009,8.054,17.22a12.319,12.319,0,0,1,6.939-6.939C19.8,8.375,31.2,8.814,36.511,8.814S53.24,8.391,58.029,10.28a12.319,12.319,0,0,1,6.939,6.939c1.906,4.805,1.466,16.208,1.466,21.518S66.874,55.467,64.968,60.256Z" transform="translate(0.005 -2.238)" fill="#676767"/>
</svg>
