<svg id="Icon_awesome-twitter-square" data-name="Icon awesome-twitter-square" xmlns="http://www.w3.org/2000/svg" width="73" height="73" viewBox="0 0 73 73">
  <path id="Icon_awesome-twitter-square-2" data-name="Icon awesome-twitter-square" d="M65.179,2.25H7.821A7.823,7.823,0,0,0,0,10.071V67.429A7.823,7.823,0,0,0,7.821,75.25H65.179A7.823,7.823,0,0,0,73,67.429V10.071A7.823,7.823,0,0,0,65.179,2.25ZM57.21,28.126c.033.456.033.929.033,1.385,0,14.127-10.754,30.406-30.406,30.406a30.266,30.266,0,0,1-16.409-4.791,22.514,22.514,0,0,0,2.575.13,21.427,21.427,0,0,0,13.264-4.562,10.7,10.7,0,0,1-9.989-7.414,11.518,11.518,0,0,0,4.823-.2,10.688,10.688,0,0,1-8.555-10.494v-.13a10.68,10.68,0,0,0,4.823,1.352,10.664,10.664,0,0,1-4.758-8.9,10.553,10.553,0,0,1,1.45-5.394A30.344,30.344,0,0,0,36.093,30.7a10.71,10.71,0,0,1,18.234-9.76A20.941,20.941,0,0,0,61.1,18.365a10.659,10.659,0,0,1-4.693,5.882,21.267,21.267,0,0,0,6.159-1.662A22.494,22.494,0,0,1,57.21,28.126Z" transform="translate(0 -2.25)" fill="#676767"/>
</svg>
